<?xml version="1.0" standalone="no"?>
<!DOCTYPE svg PUBLIC "-//W3C//DTD SVG 20010904//EN"
 "http://www.w3.org/TR/2001/REC-SVG-20010904/DTD/svg10.dtd">
<svg version="1.0" xmlns="http://www.w3.org/2000/svg"
 width="230.000000pt" height="234.000000pt" viewBox="0 0 230.000000 234.000000"
 preserveAspectRatio="xMidYMid meet">

<g transform="translate(0.000000,234.000000) scale(0.100000,-0.100000)"
fill="#000000" stroke="none">
<path d="M800 2089 c-120 -36 -172 -166 -127 -311 l15 -48 -40 -11 c-116 -31
-236 -244 -273 -481 -5 -30 -10 -38 -27 -38 -32 0 -84 37 -98 69 -36 89 81
266 271 408 49 36 87 68 85 70 -6 7 -125 -56 -197 -103 -87 -57 -195 -173
-227 -242 -29 -63 -32 -143 -8 -189 33 -64 120 -120 211 -135 18 -3 20 -11 20
-83 0 -68 4 -89 31 -145 41 -86 135 -202 217 -269 l68 -55 -29 -29 c-41 -40
-96 -46 -142 -15 -88 60 -159 249 -177 474 -9 118 -21 77 -22 -78 -2 -242 61
-418 175 -484 86 -51 191 -28 279 60 l46 46 37 -29 c100 -79 300 -81 511 -5
84 31 91 27 91 -44 0 -151 -247 -157 -559 -16 -91 42 -76 20 34 -46 151 -91
296 -136 417 -128 77 5 132 31 172 81 27 34 31 48 34 112 3 51 -1 89 -12 121
-9 26 -16 49 -16 50 0 2 18 9 41 15 122 37 232 230 274 482 4 28 11 37 26 37
62 0 117 -70 103 -134 -23 -106 -155 -264 -313 -374 -41 -29 -70 -52 -65 -52
17 0 161 77 221 118 85 58 189 170 219 237 22 47 26 67 22 121 -3 44 -10 72
-24 91 -35 48 -100 90 -156 103 -29 6 -58 13 -65 15 -8 3 -8 14 -1 45 18 70
-15 181 -81 270 -41 57 -122 142 -180 189 l-54 44 36 34 c118 107 256 -60 302
-364 8 -54 15 -116 16 -138 0 -37 1 -38 11 -15 6 15 8 81 5 170 -8 203 -40
310 -119 396 -51 55 -90 74 -155 74 -63 -1 -118 -27 -175 -83 l-46 -47 -51 34
c-29 20 -75 40 -108 47 -102 21 -270 -1 -400 -53 -70 -27 -83 -21 -83 42 0 69
34 106 110 120 115 22 248 -8 463 -104 31 -14 57 -24 57 -22 0 8 -134 93 -190
121 -137 69 -311 101 -400 74z m430 -254 c62 -22 100 -60 100 -101 0 -62 -52
-154 -124 -221 -37 -35 -72 -63 -78 -63 -16 0 -113 74 -182 139 -65 62 -156
185 -156 211 0 17 16 21 200 54 48 9 195 -3 240 -19z m455 -259 c56 -90 75
-144 75 -212 0 -77 -25 -103 -108 -113 -77 -9 -149 0 -224 29 -67 25 -67 24
-43 165 20 113 60 233 98 293 l30 47 63 -69 c35 -37 84 -101 109 -140z m-943
52 c32 -26 97 -125 112 -171 9 -26 19 -71 22 -100 l6 -54 -53 -23 c-138 -59
-263 -90 -365 -90 -76 0 -77 2 -38 112 33 93 85 193 126 242 67 82 148 117
190 84z m434 -384 c43 -25 44 -27 44 -79 0 -50 -2 -53 -41 -79 -45 -30 -63
-29 -116 4 -31 18 -33 24 -33 73 0 51 2 55 38 79 47 33 54 33 108 2z m674
-123 c0 -30 -48 -158 -88 -236 -47 -91 -135 -181 -186 -190 -49 -10 -66 0
-116 64 -47 60 -76 133 -86 214 l-6 55 106 41 c129 50 208 69 304 70 65 1 72
-1 72 -18z m-1114 -46 c34 -8 81 -22 104 -31 l42 -17 -7 -70 c-14 -145 -85
-359 -131 -398 -14 -12 -21 -8 -51 26 -137 159 -195 264 -201 366 -4 58 -1 69
19 92 19 21 38 29 89 36 36 5 67 9 70 10 3 0 33 -6 66 -14z m457 -242 c124
-95 267 -257 267 -305 0 -18 -50 -32 -185 -49 -188 -25 -355 28 -355 112 0 63
42 142 116 217 39 39 77 72 84 72 6 0 39 -21 73 -47z"/>
</g>
</svg>
